USFL
nRows=224
nColumns=2
inDegrees=yes
endheader
time	tib_ant_r	
2.79435	 81.429461	
2.82762	 81.419911	
2.86089	 81.398479	
2.89415	 81.381949	
2.92742	 81.357882	
2.96069	 81.351599	
2.99395	 81.365029	
3.02722	 81.386810	
3.06048	 81.395253	
3.09375	 81.432950	
3.12702	 81.450062	
3.16028	 81.451761	
3.19355	 81.464132	
3.22681	 81.468397	
3.26008	 81.514298	
3.29335	 81.531149	
3.32661	 81.491356	
3.35988	 81.477864	
3.39315	 81.467266	
3.42641	 81.460065	
3.45968	 81.428361	
3.49294	 81.397673	
3.52621	 81.462273	
3.55948	 81.434119	
3.59274	 81.469200	
3.62601	 81.463913	
3.65927	 81.416501	
3.69254	 81.439351	
3.72581	 81.472875	
3.75907	 81.467264	
3.79234	 81.404042	
3.8256	 81.322803	
3.85887	 81.312617	
3.89214	 81.143789	
3.9254	 81.140490	
3.95867	 81.044867	
3.99194	 80.974407	
4.0252	 80.974613	
4.05847	 80.984040	
4.09173	 80.969491	
4.125	 80.906329	
4.15827	 80.860093	
4.19153	 80.826877	
4.2248	 81.075258	
4.25806	 80.882067	
4.29133	 80.974773	
4.3246	 80.733170	
4.35786	 80.578512	
4.39113	 80.700312	
4.4244	 80.461891	
4.45766	 80.279259	
4.49093	 80.288049	
4.52419	 80.020146	
4.55746	 79.936600	
4.59073	 79.834506	
4.62399	 79.734316	
4.65726	 79.737196	
4.69052	 79.682878	
4.72379	 79.816128	
4.75706	 79.789090	
4.79032	 79.738734	
4.82359	 79.861421	
4.85685	 80.147263	
4.89012	 79.860946	
4.92339	 79.989435	
4.95665	 80.360224	
4.98992	 80.384642	
5.02319	 60.417211	
5.05645	 60.089008	
5.08972	 59.786714	
5.12298	 59.779977	
5.15625	 59.503324	
5.18952	 59.447676	
5.22278	 59.393257	
5.25605	 59.192594	
5.28931	 58.999902	
5.32258	 58.579438	
5.35585	 58.432950	
5.38911	 58.423038	
5.42238	 58.260524	
5.45565	 58.178698	
5.48891	 58.203975	
5.52218	 58.116174	
5.55544	 58.187293	
5.58871	 58.093820	
5.62198	 57.961477	
5.65524	 57.901951	
5.68851	 57.842787	
5.72177	 57.770787	
5.75504	 57.737922	
5.78831	 57.727749	
5.82157	 57.710038	
5.85484	 57.592856	
5.8881	 57.522091	
5.92137	 57.373020	
5.95464	 57.334084	
5.9879	 57.301902	
6.02117	 57.156407	
6.05444	 57.114009	
6.0877	 56.994149	
6.12097	 56.913530	
6.15423	 56.958988	
6.1875	 56.976403	
6.22077	 56.979581	
6.25403	 56.922467	
6.2873	 56.858530	
6.32056	 56.786409	
6.35383	 56.754074	
6.3871	 56.697935	
6.42036	 56.745342	
6.45363	 56.861987	
6.4869	 56.857232	
6.52016	 56.862969	
6.55343	 56.792926	
6.58669	 56.753973	
6.61996	 56.672227	
6.65323	 56.550779	
6.68649	 56.405425	
6.71976	 56.415922	
6.75302	 56.317942	
6.78629	 56.367746	
6.81956	 56.453024	
6.85282	 56.462628	
6.88609	 56.515947	
6.91935	 56.562777	
6.95262	 56.518271	
6.98589	 56.570897	
7.01915	 56.581908	
7.05242	 56.550208	
7.08569	 56.543329	
7.11895	 56.587408	
7.15222	 56.565779	
7.18548	 56.535274	
7.21875	 56.493973	
7.25202	 56.493850	
7.28528	 56.469962	
7.31855	 56.483997	
7.35181	 56.445467	
7.38508	 56.460395	
7.41835	 56.452172	
7.45161	 56.482116	
7.48488	 56.545694	
7.51815	 56.556454	
7.55141	 56.559173	
7.58468	 56.533776	
7.61794	 56.492883	
7.65121	 56.494200	
7.68448	 56.540915	
7.71774	 56.567111	
7.75101	 56.625529	
7.78427	 56.591585	
7.81754	 56.596719	
7.85081	 56.692617	
7.88407	 56.717839	
7.91734	 56.792792	
7.9506	 56.767786	
7.98387	 56.773132	
8.01714	 56.811879	
8.0504	 56.778217	
8.08367	 56.825990	
8.11694	 56.783990	
8.1502	 56.754297	
8.18347	 56.773774	
8.21673	 56.774801	
8.25	 56.802375	
8.28327	 56.817957	
8.31653	 56.826851	
8.3498	 56.840744	
8.38306	 56.820304	
8.41633	 56.756507	
8.4496	 56.784966	
8.48286	 56.808365	
8.51613	 56.839105	
8.5494	 56.886139	
8.58266	 56.845103	
8.61593	 56.852309	
8.64919	 56.814478	
8.68246	 56.764537	
8.71573	 56.738267	
8.74899	 56.764165	
8.78226	 56.733985	
8.81552	 56.744416	
8.84879	 56.729335	
8.88206	 56.715301	
8.91532	 56.717615	
8.94859	 56.666087	
8.98185	 56.650827	
9.01512	 56.623686	
9.04839	 56.665945	
9.08165	 56.711776	
9.11492	 56.688607	
9.14819	 56.687453	
9.18145	 56.681025	
9.21472	 56.569004	
9.24798	 56.528537	
9.28125	 56.484782	
9.31452	 56.481047	
9.34778	 56.508231	
9.38105	 56.525795	
9.41431	 56.504249	
9.44758	 56.460575	
9.48085	 56.383310	
9.51411	 56.341765	
9.54738	 56.280461	
9.58065	 56.287494	
9.61391	 56.227695	
9.64718	 56.431249	
9.68044	 56.382657	
9.71371	 56.323542	
9.74698	 56.274816	
9.78024	 56.237220	
9.81351	 56.373950	
9.84677	 56.238061	
9.88004	 56.022381	
9.91331	 55.938917	
9.94657	 55.853618	
9.97984	 55.846781	
10.0131	 55.528154	
10.0464	 71.293133	
10.0796	 71.152893	
10.1129	 70.560213	
10.1462	 70.177045	
10.1794	 70.265240	
10.2127	 70.344481	
